<?xml version="1.0" encoding="UTF-8"?>
<svg version="1.1" viewBox="0 0 968 996" width="242" height="249" xmlns="http://www.w3.org/2000/svg">
<path transform="translate(262,7)" d="m0 0h49l34 4 19 4 32 10 25 11 18 10 18 12 13 10 7 6 5-1 13-10 18-13 22-13 25-11 31-10 23-5 31-4h52l35 5 21 5 36 12 25 12 18 10 16 11 14 11 15 14 14 15 9 11 15 20 13 22 9 17 10 25 9 29 4 17 3 22 1 12v47l-3 26-4 19-7 25-8 21-12 25-15 24-14 18-9 10-6 8-2 5v13l6 29 7 21 8 16 12 22 7 12v7l-7 8-12 3h-19l-20-4-16-5-19-7-25-12-21-14-14-10-8-6-8 1-43 8-20 2h-43l-25-3-24-5-29-9-26-11-24-13-15-10-12-9-14-10-5 1-10 9-13 10-13 8-22 12-23 10-27 9-32 7-22 3-18 1h-14l-29-2-30-5-20-4h-7l-38 26-18 10-21 9-19 7-20 5-17 2h-8l-11-2-6-4-3-4-1-7 7-14 9-14 10-18 6-16 6-25 3-22v-8l-6-9-12-14-11-14-10-15-11-19-8-17-9-25-7-23v-137l10-33 8-20 10-20 9-15 11-16 11-14 9-10 7-8 15-15 11-9 17-13 13-8 15-9 16-8 20-8 18-6 24-6 27-4z" fill="#60A3A6"/>
<path transform="translate(649,27)" d="m0 0h46l23 3 28 6 29 10 20 9 21 12 17 12 13 10 14 12 14 14 9 11 7 9 7 10 6 9 11 19 7 14 8 20 5 15 5 21 4 20 1 10v53l-3 21-3 11-3 14-8 24-10 23-10 19-14 20-14 18-4 5h-2l-2 4-6 8-1 3v14l2 19 4 24 8 24 12 25 5 8-1 3h-16l-19-5-13-5-10-5-7-3-19-10-16-11-14-12-9-8-5-2-23 7-21 5-24 3-14 1h-23l-32-3-14-3-25-6-24-9-17-8-20-11-16-11-10-8-6-6 1-4 7-8 11-13 10-13 13-20 9-16 10-21 10-29 6-23 3-20 2-32v-12l-1-22-3-27-8-32-8-22-14-29-10-18-10-14-8-10-13-16-8-9 2-4 8-7 15-11 13-8 23-12 16-7 25-8 33-7z" fill="#837FA0"/>
<path transform="translate(262,7)" d="m0 0h49l34 4 19 4 32 10 25 11 18 10 18 12 13 10 7 6 5-1 13-10 18-13 22-13 25-11 31-10 23-5 31-4h52l35 5 21 5 36 12 25 12 18 10 16 11 14 11 15 14 14 15 9 11 15 20 13 22 9 17 10 25 9 29 4 17 3 22 1 12v47l-3 26-4 19-7 25-8 21-12 25-15 24-14 18-9 10-6 8-2 5v13l6 29 7 21 8 16 12 22 7 12v7l-7 8-12 3h-19l-20-4-16-5-19-7-25-12-21-14-14-10-8-6-8 1-43 8-20 2h-43l-25-3-24-5-29-9-26-11-24-13-15-10-12-9-14-10-5 1-10 9-13 10-13 8-22 12-23 10-27 9-32 7-22 3-18 1h-14l-29-2-30-5-20-4h-7l-38 26-18 10-21 9-19 7-20 5-17 2h-8l-11-2-6-4-3-4-1-7 7-14 9-14 10-18 6-16 6-25 3-22v-8l-6-9-12-14-11-14-10-15-11-19-8-17-9-25-7-23v-137l10-33 8-20 10-20 9-15 11-16 11-14 9-10 7-8 15-15 11-9 17-13 13-8 15-9 16-8 20-8 18-6 24-6 27-4zm-3 20-20 3-27 6-27 9-20 9-17 9-18 12-11 8-13 11-15 14-9 10-8 9-2 5h-2l-20 30-10 18-8 19-7 19-8 31-2 14-1 17v37l2 23 6 26 4 15 9 24 13 26 13 21 12 16 9 11 10 11 2 6v15l-2 23-5 22-5 15-13 29-7 11v3h12l17-3 21-7 23-11 19-11 14-10 11-10 9-7 2-2 7 1 17 5 26 6 29 3h37l26-3 30-7 23-8 24-11 17-9 12-8 13-9 10-8 2-3-9-10-9-11-8-10-11-16-6-10-14-26-8-19-8-24-6-25-4-38v-34l4-36 6-25 5-16 7-18 15-31 9-14 14-19 12-14 7-8 4-5-2-4-7-6-15-11-20-12-17-9-25-10-15-5-31-7-16-2zm390 0-18 2-37 8-26 9-31 15-16 10-12 9-10 8-3 3 2 4 9 10 22 28 13 21 14 28 6 15 7 21 6 25 3 27 1 22v12l-2 32-4 25-7 24-8 23-14 29-12 19-10 14-13 16-7 8-5 6 1 4 8 8 17 12 15 9 23 12 24 9 13 4 24 6 26 3 13 1h23l31-3 16-3 26-7 9-3 5 2 13 12 14 11 16 10 18 10 7 3 11 5 23 7 5 1h16v-4l-12-23-8-20-5-17-4-27-1-12v-14l4-8 5-5v-2h2l22-28 7-11 8-13 11-23 8-21 6-20 3-14 3-16 1-9v-53l-2-15-6-29-6-19-7-18-4-9-11-21-7-11-6-9-8-11-9-11-12-13-10-10-11-9-20-15-21-13-16-8-16-7-30-10-30-6-17-2z" fill="#FDFEFE"/>
<path transform="translate(880,191)" d="m0 0 7 1v2l4-1 2 2 3 1 2 5 2-4 1 3 3-4h2l1 10h3l3 9 1 7 6 7 2 7 6 10v3h2v6l1 3 2 1v5h-2v12l3 7 7 14 1 10v16l-2 16-3 9-2 12-2 10-4 13-3 11-4 8-9 19-1 3h-2l-2 6-6 11-8 12-6 7-7 10-7 8-3 4h-2v2h-2l-2 5-3 6v15l2 16 2 25 2 10 2 2 2 7 4 9 6 12v6h2l1 4-1 6-4 1h-12v-2h-5v-2l-8-1-12-5-5-3-3-1v-2l-6-2-4-2-11-4-9-6-4-2v-2l-4-2-10-9-7-6-12-6h-7l-3 2-24 6-6 2-16 3-25 2h-23l-12-2v-2l-7 1-5-2-13-1v-2h-8l-5-2v-2l-3-1-4-2-5-5-2-4-5-2-12-5-1-2-7-1-1-3 2-2-2-4 5 1 3-2 2-9 7-3 5-6 6-4v-6l4-6 4-3 2-5 1-2h2v2h2l1-4h3v-5l-2-1 1-4 1-5 3-1 2 1 1-2 4-3 3-5-1-1-2-1 1-4h2l1-6 5-1 3-4h2l1-2h7l1-5 1-2h3l2-6 3-2 2-6 2-1 2-5v-7l4-2 2-2v2l5 1 2-5 6-2 1 1h8l6 2-1-4 7-3 1 1h10l6-5 1-11 1-3 3-2 3-7h2l1-5 2-3v-6l5-1 6 1 6-3 1-1 2-22 1-3h5l5 5h9v-2l8-2 2-6h2v-2h3l-1-11-1-2v-11l2-4 2 1 4-1 2 2 1-3 3 1 1-9 6-7 5-1v-4l4-2-1-4 2-1-2-5 2-1v-2h3l2 4 2-5h3l2-5 5-5 7-1 2-4 3-3h2l1-3h3l1-4 1-2h-2l2-6 2-1 6 1 2-6 2-1v-4h2l1-3 5 2-1-4-2-2z" fill="#8D7194"/>
<path transform="translate(412,157)" d="m0 0 1 4-13 27-8 22-7 28-3 20-2 21v34l4 38 6 25 9 27 11 24 13 24 13 18 8 11 9 10 7 8 3 5-9 8-13 9-15 10-23 12-23 10-22 7-26 6-26 3h-37l-29-3-34-8-11-4h-5l-9 8-11 9-10 8-13 8-22 12-21 9-17 5-13 2h-12l1-4 9-16 12-28 5-17 3-15h2l3-17h4l5 8v2l5-3 5-8 8-3 6-5h3l1-2 4-4 2-9 6-1 2-5 2-3h2v-8l3-5 7-9 5-13h2v-2l3-1 7-9 8-8 5-7 6-5 9-3 1-6 8-2 4-5-2-2 6-2v-2l2-1-5-4h3v-2h-2v-2h2l1-4 4-1v4l4 1-2 5 2 3 7-14h5l4 4 3 2 5 1 6 2h3l-3-2 8-4h2l-1-3-1-1-2-6h-4l1-4 14-9 7-7 7-11 7-16 4-16 2-3 4 2 2 4h3l2-3h3l2-5 4 2h2l9-18-3-5 5-5h4l2-5 3-5 5 1 2 2-1 1 5 2v2l2-1 2-5v-7l3-3 2 2 4-9v-5l4-4 4-8 2-12-1-3 3-3 2-11 3-9 5-9 3-9v-3l1-6 5-4 3-4-2-2-4 3 2-5 3-2 1 3 3-1z" fill="#6E94A6"/>
<path transform="translate(478,107)" d="m0 0 4 1 7 7 14 16 13 19 10 16 11 21 9 23 7 23 6 37 1 10v36l-4 26-3 19-8 26-10 23-8 16-10 17-10 14-4 6h-2l-2 4-11 13-8 8-4-2-9-9-9-11-10-13-11-17-12-22-5-11-9-24-5-16-7-40-1-12v-27l3-26 6-29 10-30 8-18 6-12 11-18 8-12 13-17z" fill="#496484"/>
<path transform="translate(243,31)" d="m0 0h12l3 3 4 2 1 1h7l-2 2 13 2-2 2 3 2-6 2h8l-3 2 8 1h5l-2 2-13 5-7 2-10 7-4 3-6 3-6 4-4 1-3 6-5 6-1 3-6 2-2 2h-8l-7 6-5 3h-2l-2 9-8 4-2 2-2 5-6 4-3 1-1 3-5 3-1 2h-2v2l-5 1 1 6-3 3h-2l-1 5-3 3-6 3-4 6-4 2-1 5-5 5-3 1-1 4-1 3-7 6-4 1-4 12-4 6-8 5-3 5h-2l-1 5 2 1 2-4 3-3 6-2-1 4-3 4h-2l-1 4-6 9-5 7h-3l-2 5-2 3-5 1v-6l3-3-5 3-4 6-5 2-2 4h-3v6l-5 6-5 1-1 3h-2l-1 3-9 2-1 4-3 2-6-1h-3l-3 3 6 3v2h-3l-2 4-1 3h-2v-2h-4l-2-5-2 1-2-3v-18l1-18 3-14 7-28 3-8 3-12 9-20 11-19 16-23 1-2h2l2-5 24-26 2-2 5-2 8-7 17-12 14-10 13-8 15-7 10-3 7-4 5-1 4-2h5v-2l5-2 7-2z" fill="#58AEA5"/>
<path transform="translate(649,27)" d="m0 0h46l23 3 28 6 23 8 5 5 16 6 4 4-4 2h-13l-6-2-5-1-7-3v2l-7-2-4-1 3 5h-6l-7-2v-4l-4 2-11 1 1 4-8 3-1 4-8 2v2l-5 1-2 4-6 5-7 3-1 3h2l1 4-5 5h-2l-2 5-10 1-5 5-14 9v2l2 1-1 5-7 4-4 4-4 2-9 3v2l-5 5-2 3-4 2 2 1-2 7-5 3h-2v2h-2v2l-7 2-3 8-8 5v3l-3 1-1 5-3-2 1 5-1 3 1 9v9l-1 8h3l1 6-3-1 2 13-2 9-2 2-1 2v7l-2 1-1-14-2-9-3-8-1-5h-2l-4-15-7-19-14-29-10-18-10-14-8-10-13-16-8-9 2-4 8-7 15-11 13-8 23-12 16-7 25-8 33-7z" fill="#6E94A6"/>
<path transform="translate(246,182)" d="m0 0 5 3 11 14 9 13 10 16 13 27 9 29 1 4v29l-3 12-8 17-8 10-9 8-15 9-7 1-1-1-1-21v-27l7-8 8-7 11-12 1-4-1-2h-7l-4 2-7 8-5 6h-3v-35l-1-11-1-1h-6l-2 1-1 23h-4l-6-7-7-5h-4l-1 6 16 16 6 9v33l-4-1-9-12-6-4-6 1-1 4 6 8 19 19 1 2v22h-5l-17-12-8-7-7-8-7-10-5-13-3-13v-16l3-17 5-18 8-19 12-22 14-21 11-14z" fill="#FDFEFE"/>
<path transform="translate(194,806)" d="m0 0h117l4 2 1 2v14l-2 3-4 1h-93l1 59h47l35 1 2 2v11l-2 6-2 1h-81l1 65h85l12 1 3 6v9l-2 5-29 1h-92l-2-2-1-5v-179z" fill="#383756"/>
<path transform="translate(486,800)" d="m0 0h20l3 3v69h3l5-5 7-6 14-7 15-3h11l14 3 10 5 5 4 7 10 4 12 1 6 1 48v21l-1 31-3 3-4 1h-12l-5-4-1-7v-77l-1-13-4-10-4-5-12-6-5-1h-11l-13 4-9 7-7 8-4 10-1 92-6 2h-16l-2-2-1-12v-170l1-10z" fill="#383756"/>
<path transform="translate(694,851)" d="m0 0h21l15 4 14 7 12 11 7 9 7 15 3 14v24l-3 16-6 14-10 13-12 9-14 7-5 2h-37l-16-6-11-7-11-11-8-14-5-13-2-11v-20l4-16 7-16 8-11 9-8 16-8zm1 20-11 4-9 6-7 7-6 12-4 17v12l2 13 4 12 7 9 7 7 10 5 9 2h13l13-4 8-5 7-7 6-10 4-12 1-6v-17l-4-16-6-12-8-8-11-6-10-3z" fill="#363555"/>
<path transform="translate(478,107)" d="m0 0 4 1 7 7 14 16 13 19 10 16 11 21 9 23 7 23 6 37 1 10v36l-3 21h-1l1-13 1-12v-26l-3-28-4-23-6-18-4-13-9-21-10-19-7-10-5-8v7l1 6-6-2-1 13 4 5-1 2-1 3-2-1 2 5 5 5 1 7-4-2-1-1h-7l-2-1v2l-2 1-1 4-9 5-3 6-4 2v-2h-3l-2 4-4 4-5 1-2 5-4 6-5 5-6 5-2 3-7 1-4 2-4 6-4 4-2-4v-5-2l-1 2-2-1 4-6 1-10 1-8-2-5-3 1-5-5-4 1-7 25-5 29-1 10v40l5 24 1 15 6 21 5 14-1 3-7-19-4-13-7-40-1-12v-27l3-26 6-29 10-30 8-18 6-12 11-18 8-12 13-17z" fill="#426E86"/>
<path transform="translate(396,851)" d="m0 0h26l17 5 12 7 6 7-1 5-9 10-5-1-12-7-10-4-5-1h-17l-11 4-8 6-8 9-5 11-2 9-1 13 2 17 4 12 7 10 9 7 10 4 4 1h19l13-4 8-6 3-2 7 1 8 8 1 3-7 8-11 7-12 5-3 1h-32l-13-4-14-7-12-11-9-14-6-18-2-14v-10l4-20 7-16 7-9 8-8 13-8 15-5z" fill="#373655"/>
<path transform="translate(545,354)" d="m0 0 7 2-1 12-8 24-9 20-7 14-3 5-5 5-7 11-4 5-1 3h-2v2h-2v2h-2l-1 4-12 13h-2l-2 4-3 3h-3l-1-2-5-2-6-7-5-5-1-4h-2l-3-5-2-1-1-5h2l1-4h2l-1-3 3-3 3-1 2-5 5-25 4-4 5-3 6-5 9-4h3l1-7 2-3h2l2-8h8l1-6 6-2 1-4 5-1 1-3 3 1 2-4 2 2 2-4 4 1 3 2 1-3z" fill="#535981"/>
<path transform="translate(463,95)" d="m0 0 1 2-9 11-4 11v3l11-6 5-5 7-6 7-1 7 5 4 4 10 4 8 5-8-19-1-3 4 2 11 13 11 14 10 15 9 16 11 22 6 15 7 21 5 20v8l-1-2-3-1-2-9-5-5v-11l-1-3-6-2-3-2-3-9-4 2-2-7h-2l-1 2v-2h-2l-8-18-9-17-10-15-12-17-9-10-11-12-4 1-15 15-11 15-13 20-8 13-9 20-7 18h-3v-7l4-8v-10l-1-2-5 1-10 16h-3l2-9 13-28 7-13 7-11 14-19 12-14 8-7z" fill="#F7FEFE"/>
<path transform="translate(714,205)" d="m0 0 5 1 5 4 1 4v165l-3 6-5 2-6-1-3-6-1-10v-153l1-8z" fill="#FDFEFE"/>
<path transform="translate(680,244)" d="m0 0h7l5 4v93l-1 2h-2v2l-3 2-7-1-4-7v-90z" fill="#FDFEFE"/>
<path transform="translate(743,247)" d="m0 0h11l3 3 1 28v16l-1 45-4 4h-9l-3-3-1-5v-73l1-12z" fill="#FDFEFE"/>
<path transform="translate(649,262)" d="m0 0 6 1 4 5v54l-2 4-3 2h-7l-5-6v-52l2-6z" fill="#FDFEFE"/>
<path transform="translate(478,107)" d="m0 0 4 1 7 7 14 16 13 19 10 16 11 21 9 23 7 23 6 37 1 10v36l-3 21h-1l1-13 1-12v-26l-3-28-4-23-6-18-4-13-9-21-10-19-7-10-7-11-10-14-13-13h-6l-4 4-4-1-2 3-3 1-6 8-5 5-2 1 2-5 9-11z" fill="#6C96A6"/>
<path transform="translate(778,280)" d="m0 0 7 1 4 5v18l-3 5h-8l-5-4-1-3v-15l3-5z" fill="#FDFEFE"/>
<path transform="translate(445,125)" d="m0 0h3l-1 10-6 10-6 8-6 9-2 2h-5l-1-4 3-9 7-12 12-13z" fill="#FEFEFE"/>
<path transform="translate(617,283)" d="m0 0 7 1 3 4v16l-5 5-7-1-4-6v-12l3-5z" fill="#FDFEFE"/>
<path transform="translate(420,192)" d="m0 0 2 4-3 4-9 27-5 23-4 27v41l5 24 1 15 6 21 5 14-1 3-7-19-4-13-7-40-1-12v-27l3-26 6-29 10-30z" fill="#6A98A6"/>
<path transform="translate(452,139)" d="m0 0h2l-1 16-1 3 1 7-8 1v2l-11 8-4-1 2-5 6-10 4-6h2l2-7 3-1 1-4z" fill="#496484"/>
<path transform="translate(479,115)" d="m0 0h6l6 7-5 3v5l-4 4-5-1-1-2-8-1-10 2 6-7 2-3 3-1 3-3 5 1z" fill="#486484"/>
<path transform="translate(522,431)" d="m0 0 1 2-10 16-10 14h-2l-2 4-11 13-8 8-4-2-9-9-9-11-7-9v-2h2v2l3 1 2 5h2l4 7 8 7 1 2 5 2v2l5-3 5-5 12-13 1-3h2v-2h2v-2h2l1-5 6-7 5-8z" fill="#837F9F"/>
<path transform="translate(394,371)" d="m0 0 1 2 5-1 9 21 1 6v5l-3 1-1 2-3-10-4-1-1-4-1 2h-2v-5l4-1-3-3v-3l-2-7z" fill="#F7FEFE"/>
<path transform="translate(537,191)" d="m0 0 3 3 8 22 5 17 6 37 1 10v36l-3 21h-1l1-13 1-12v-26l-3-28-4-23-6-18-4-13-4-9z" fill="#778CA3"/>
<path transform="translate(291,248)" d="m0 0 4 1 3 6 3 10 5 6 1 8-2 11-2-2-8-27-4-10z" fill="#6C96A6"/>
<path transform="translate(85,596)" d="m0 0 3 1v4l2-1 1 2 2-2 1 3 3 3-2 2-5-1-4 2-1 1 2 2h-5l-3-7 1-6z" fill="#60A3A6"/>
<path transform="translate(516,167)" d="m0 0 3 1 3 3 3 1 2 6 1 9 2 6v4h-2v-2l-2-1-4-10-2-7h-2l-1 2-1-5z" fill="#426E86"/>
<path transform="translate(100,99)" d="m0 0 2 1-1 2h-2v2l-5 4-7 8-4 5h-2l-2 4-8 11-6 8-9 13-5 7-1-2 20-30h2l2-5 24-26z" fill="#60A4A6"/>
<path transform="translate(246,182)" d="m0 0 5 3 4 5-1 3-4-3h-8l-2 4-8 9-5 8-1-4 9-12 8-10z" fill="#F9FEFE"/>
<path transform="translate(515,136)" d="m0 0 5 3 3 5v2l5-1 3 2v6l-2 3-4-2-4-6v-2l-5-2-2-2v-5z" fill="#FEFEFE"/>
<path transform="translate(400,327)" d="m0 0 3 1 3 14 1 15 6 21 5 14-1 3-7-19-4-13-6-33z" fill="#7093A5"/>
<path transform="translate(435,122)" d="m0 0 1 3-12 17-8 13h-2l1-5 2-2 4-10 6-8 6-5z" fill="#6B98A6"/>
<path transform="translate(512,148)" d="m0 0h3l11 18 11 21 1 4-2 1-10-21-10-16z" fill="#6E94A5"/>
<path transform="translate(399,276)" d="m0 0 2 2v40l2 9h-3l-2-16v-27z" fill="#6999A6"/>
<path transform="translate(769,45)" d="m0 0 6 1 20 9 5 3-1 4-5-2-4-4-16-6z" fill="#788AA2"/>
<path transform="translate(522,431)" d="m0 0 1 2-10 16-10 14h-2l-1 2v-3l1-3h2v-2h2v-2h2l1-5 6-7 5-8z" fill="#7E84A0"/>
<path transform="translate(571,220)" d="m0 0 2 3 3 12 1 1 2 9v14l-2 1-2-17-4-16z" fill="#788AA1"/>
<path transform="translate(68,601)" d="m0 0h1l1 10 11 1v1l-7 1h-12l1-4z" fill="#60A4A6"/>
<path transform="translate(478,107)" d="m0 0 3 1-8 7-7 8-6 8-5 5-2 1 2-5 9-11z" fill="#679CA6"/>
<path transform="translate(397,274)" d="m0 0h2l-1 36h-1l-1-14v-20z" fill="#F7FEFE"/>
<path transform="translate(452,137)" d="m0 0 1 2-4 7-3 3-2 5-4 4-5 9-2 1 2-5 7-12 8-12z" fill="#6B98A6"/>
<path transform="translate(568,214)" d="m0 0 2 4 5 20v5l-3-4 1-4-2-1-1-9-2-1-1-7z" fill="#FEFEFE"/>
<path transform="translate(740,36)" d="m0 0 9 1 15 5 2 3-5-1-9-3-8-3z" fill="#7C87A1"/>
<path transform="translate(511,78)" d="m0 0 2 1-10 9h-2l-1 8-4-3 2-4 8-7z" fill="#60A4A6"/>
<path transform="translate(420,192)" d="m0 0 2 4-3 4-7 21-2-1 7-21z" fill="#6895A4"/>
<path transform="translate(537,191)" d="m0 0 3 3 6 16-1 2-5-10-3-7z" fill="#738FA4"/>
<path transform="translate(223,212)" d="m0 0h2l-2 5-6 11h-2l1-5z" fill="#FAFEFE"/>
<path transform="translate(262,311)" d="m0 0h2l-1 4-6 5-2 3h-3v-2l5-5 4-2z" fill="#6C97A6"/>
<path transform="translate(216,317)" d="m0 0h7l4 4-9-1-4 1-2 3 1-5z" fill="#F9FEFE"/>
<path transform="translate(418,200)" d="m0 0h2l2 4v5h-3l-1-2-1 2-2-1z" fill="#486484"/>
<path transform="translate(89,606)" d="m0 0 9 2-4 2-3 1h-7l2-3z" fill="#6A99A6"/>
<path transform="translate(214,230)" d="m0 0v3l-4 8-3 3 1-6 3-6z" fill="#F9FEFE"/>
<path transform="translate(464,123)" d="m0 0v3l-4 5-5 5-2 1 2-5 5-6z" fill="#6B97A6"/>
<path transform="translate(505,455)" d="m0 0h2l-2 5-2 3h-2l-1 2v-3l1-3h2v-2h2z" fill="#8082A0"/>
<path transform="translate(464,90)" d="m0 0 1 4-12 12v-3l7-7 2-3h2z" fill="#FAFEFE"/>
<path transform="translate(485,476)" d="m0 0v3l-4 4h-3v-4l5-2z" fill="#496484"/>
<path transform="translate(769,45)" d="m0 0 6 1 4 2 1 3-7-2z" fill="#7E84A0"/>
<path transform="translate(425,185)" d="m0 0 2 3-4 8-2-1 1-5z" fill="#486484"/>
</svg>
